:SAMPLES-PER-SECOND 30
:FRAME-RANGE 1-3535
:FULLY-SPECIFIED
:DEGREES
2652
root  -3.14511 39.9342 -35.235 5.71704 -8.23846 -0.911697
RightUpLeg  -10.7669 -0.590133 -6.63347
RightLeg  25.3625 -9.45039 -5.06126
RightFoot  -11.6549 -0.0535395 9.40288
RightToes  5.38503e-012 1.26228e-014 -6.01869e-014
Spine  -4.68571 0.693558 -4.64274
Spine1  9.72986 1.863 -4.72414
HEad  -11.4155 -10.0029 10.4266
LeftShoulder1  1.49501 -2.09912 -21.5525
LeftArm  2.80326 2.36844 -42.7747
LeftForeArm  33.7406 3.15892 -14.0744
LeftHand  -0.0598382 4.53331 4.67238
RightShoulder  2.12424 3.55634 24.9123
RightArm  -22.2934 16.2153 55.1673
RightForeArm  74.3299 -5.15606 3.6579
RightHand  0.161364 -6.40392 -19.7656
LeftUpLeg  -10.3973 3.81118 -0.425795
LeftLeg  13.6418 0.841941 0.15008
LeftFoot  -7.6278 0.00544767 1.24757
LeftToes  8.9788e-011 3.29689e-010 2.1201e-011
2653
root  -3.26122 39.9235 -35.272 5.82849 -9.59076 -0.77713
RightUpLeg  -10.6146 -2.00663 -6.43141
RightLeg  25.257 -9.36053 -4.99392
RightFoot  -11.9814 -0.0267968 9.78036
RightToes  5.38503e-012 1.26228e-014 -6.01869e-014
Spine  -4.86559 0.590752 -4.89598
Spine1  9.84276 1.76649 -4.70864
HEad  -11.0074 -9.70483 10.2566
LeftShoulder1  1.47817 -2.01275 -21.6932
LeftArm  3.46131 2.93466 -42.1592
LeftForeArm  33.3935 2.59353 -14.1877
LeftHand  -0.0592538 4.54574 4.71451
RightShoulder  2.07548 3.3436 25.1777
RightArm  -22.8968 15.3915 54.9968
RightForeArm  74.4972 -5.10501 3.39229
RightHand  0.156643 -6.38043 -19.6907
LeftUpLeg  -10.3788 4.03003 -0.360505
LeftLeg  13.5381 1.92247 0.30864
LeftFoot  -7.66563 0.0142913 0.991689
LeftToes  8.9788e-011 3.29689e-010 2.1201e-011
2654
root  -3.39307 39.9149 -35.3391 5.93884 -11.0775 -0.645142
RightUpLeg  -10.6165 -3.66573 -6.43724
RightLeg  25.3554 -9.06725 -4.86599
RightFoot  -11.765 -0.0421485 10.2412
RightToes  5.38503e-012 1.26228e-014 -6.01869e-014
Spine  -4.93156 0.422858 -5.1532
Spine1  9.91019 1.59163 -4.64625
HEad  -10.7798 -9.35371 10.0993
LeftShoulder1  1.47303 -1.97003 -21.8289
LeftArm  4.27054 3.21625 -41.7293
LeftForeArm  33.2373 2.18847 -14.3365
LeftHand  -0.0574428 4.47113 4.74151
RightShoulder  2.03694 3.15076 25.525
RightArm  -23.2159 14.5959 54.7513
RightForeArm  74.1761 -5.10471 3.31186
RightHand  0.153871 -6.36134 -19.7382
LeftUpLeg  -10.4355 4.1689 -0.294701
LeftLeg  13.528 3.16192 0.581488
LeftFoot  -7.72186 0.0315313 0.47173
LeftToes  8.9788e-011 3.29689e-010 2.1201e-011
2655
root  -3.54303 39.9075 -35.4239 5.99817 -12.9621 -0.55722
RightUpLeg  -10.7247 -5.19313 -6.62893
RightLeg  25.5261 -9.0814 -4.90737
RightFoot  -11.7339 -0.0443026 10.3654
RightToes  5.38503e-012 1.26228e-014 -6.01869e-014
Spine  -4.93928 0.32958 -5.29741
Spine1  10.0045 1.49349 -4.61871
HEad  -10.5969 -9.21504 10.0871
LeftShoulder1  1.46193 -1.90437 -21.976
LeftArm  4.7482 3.08694 -41.6699
LeftForeArm  33.3459 2.26689 -14.4504
LeftHand  -0.0537347 4.60795 4.95332
RightShoulder  2.00737 3.00879 25.774
RightArm  -23.5764 13.776 54.6158
RightForeArm  73.7344 -5.10554 3.20911
RightHand  0.12528 -6.19872 -19.6111
LeftUpLeg  -10.3896 4.43807 -0.132311
LeftLeg  13.5088 4.62727 0.862749
LeftFoot  -7.78321 0.0473955 -0.0194948
LeftToes  8.9788e-011 3.29689e-010 2.1201e-011
2656
root  -3.70681 39.8957 -35.5213 6.02026 -15.2588 -0.478958
RightUpLeg  -10.9706 -6.39153 -7.06564
RightLeg  25.5923 -9.62119 -5.19593
RightFoot  -11.5289 -0.0618763 10.1347
RightToes  5.38503e-012 1.26228e-014 -6.01869e-014
Spine  -4.89882 0.31647 -5.31276
Spine1  10.0707 1.49864 -4.6946
HEad  -10.1968 -9.29861 10.0333
LeftShoulder1  1.46065 -1.89537 -22.0014
LeftArm  4.98019 2.83958 -42.0363
LeftForeArm  33.5227 2.51778 -14.5364
LeftHand  -0.0474779 4.76154 4.85589
RightShoulder  1.98672 2.88351 26.0952
RightArm  -23.6257 13.071 54.3752
RightForeArm  73.2156 -5.13836 3.27996
RightHand  0.114033 -6.13325 -19.5787
LeftUpLeg  -10.2533 4.73432 0.065542
LeftLeg  13.5082 6.49701 1.25241
LeftFoot  -7.90701 0.0669544 -0.648501
LeftToes  8.9788e-011 3.29689e-010 2.1201e-011
2657
root  -3.89473 39.888 -35.6273 6.0564 -17.6901 -0.454239
RightUpLeg  -11.2709 -7.47912 -7.74808
RightLeg  25.258 -9.9407 -5.28515
RightFoot  -11.2615 -0.0839558 10.3887
RightToes  5.38503e-012 1.26228e-014 -6.01869e-014
Spine  -4.79748 0.22558 -5.38827
Spine1  10.0299 1.37845 -4.60249
HEad  -9.57586 -9.69328 10.049
LeftShoulder1  1.48005 -1.94709 -22.1004
LeftArm  5.12822 2.57885 -42.504
LeftForeArm  33.8009 2.7081 -14.5937
LeftHand  -0.0451143 4.82868 4.88853
RightShoulder  1.97139 2.80657 26.2534
RightArm  -23.7594 12.4351 54.3373
RightForeArm  73.0638 -5.14402 3.27712
RightHand  0.116553 -6.15388 -19.4605
LeftUpLeg  -10.1101 4.96911 0.302573
LeftLeg  13.5664 8.50281 1.80066
LeftFoot  -8.0076 0.0929204 -1.54056
LeftToes  8.9788e-011 3.29689e-010 2.1201e-011
